<svg width="7" height="10" viewBox="0 0 7 10" fill="none" xmlns="http://www.w3.org/2000/svg">
<path d="M0.96959 0.227036C0.828987 0.367682 0.75 0.558413 0.75 0.757286C0.75 0.956159 0.828987 1.14689 0.96959 1.28754L4.68209 5.00004L0.96959 8.71254C0.832971 8.85399 0.757375 9.04344 0.759084 9.24009C0.760793 9.43674 0.83967 9.62484 0.978726 9.7639C1.11778 9.90296 1.30589 9.98183 1.50254 9.98354C1.69919 9.98525 1.88864 9.90965 2.03009 9.77304L6.27284 5.53029C6.41344 5.38964 6.49243 5.19891 6.49243 5.00004C6.49243 4.80116 6.41344 4.61043 6.27284 4.46979L2.03009 0.227036C1.88944 0.0864329 1.69871 0.00744629 1.49984 0.00744629C1.30097 0.00744629 1.11024 0.0864329 0.96959 0.227036Z" fill="black"/>
</svg>
