<svg width="25" height="10" viewBox="0 0 25 10" fill="none" xmlns="http://www.w3.org/2000/svg">
<path d="M6.86773 6.25565L6.38484 6.99664L6.39454 7.00279L6.86773 6.25565ZM12.0669 6.50611L12.951 6.48646L12.9283 5.46292L11.9189 5.6342L12.0669 6.50611ZM12.1273 9.22659L12.3524 10.0818L13.027 9.90433L13.0115 9.20695L12.1273 9.22659ZM5.30453 9.35614L5.50298 8.4943L5.49758 8.4931L5.30453 9.35614ZM1.93632 7.8534L2.50849 7.17905L2.50714 7.17792L1.93632 7.8534ZM0.718577 5.08973L1.60295 5.09416V5.08973H0.718577ZM1.14176 3.15517L0.348171 2.76488L0.347605 2.76603L1.14176 3.15517ZM3.85361 0.8406L4.16737 1.66745L4.17059 1.66621L3.85361 0.8406ZM12.5419 0.616053L13.4236 0.684721L13.4817 -0.0620723L12.7547 -0.242331L12.5419 0.616053ZM12.326 3.38835L12.1613 4.25725L13.131 4.44106L13.2077 3.45702L12.326 3.38835ZM9.96822 2.25352C8.64099 2.25352 7.52538 2.3953 6.71038 2.75368C6.29278 2.93731 5.91279 3.19572 5.63614 3.56068C5.35085 3.93703 5.21471 4.37569 5.21471 4.83928H6.98346C6.98346 4.73574 7.00854 4.67816 7.04568 4.62916C7.09145 4.56878 7.1951 4.47273 7.42236 4.3728C7.89707 4.16405 8.71602 4.02227 9.96822 4.02227V2.25352ZM5.21471 4.83928C5.21471 5.74934 5.62264 6.49984 6.38488 6.99658L7.35058 5.51473C7.08796 5.34359 6.98346 5.14983 6.98346 4.83928H5.21471ZM6.39454 7.00279C7.11716 7.46045 8.07 7.6323 9.13912 7.6323V5.86356C8.21609 5.86356 7.65467 5.70723 7.34092 5.50852L6.39454 7.00279ZM9.13912 7.6323C10.1886 7.6323 11.214 7.54785 12.2148 7.37802L11.9189 5.6342C11.0197 5.7868 10.0933 5.86356 9.13912 5.86356V7.6323ZM11.1827 6.52576L11.2432 9.24624L13.0115 9.20695L12.951 6.48646L11.1827 6.52576ZM11.9023 8.37134C10.8912 8.63741 9.77599 8.77404 8.55184 8.77404V10.5428C9.90711 10.5428 11.1756 10.3915 12.3524 10.0818L11.9023 8.37134ZM8.55184 8.77404C7.30262 8.77404 6.29164 8.67592 5.50298 8.49432L5.10609 10.218C6.06775 10.4394 7.22164 10.5428 8.55184 10.5428V8.77404ZM5.49758 8.4931C4.65346 8.30428 4.0438 8.1037 3.63715 7.9051L2.86096 9.49444C3.44462 9.77948 4.20528 10.0165 5.11148 10.2192L5.49758 8.4931ZM3.63715 7.9051C3.20123 7.69221 2.82682 7.44916 2.50849 7.17906L1.36415 8.52774C1.80582 8.90249 2.30657 9.22369 2.86096 9.49444L3.63715 7.9051ZM2.50714 7.17792C1.90623 6.6701 1.59838 6.00641 1.60294 5.09416L-0.165784 5.08531C-0.172738 6.47611 0.331239 7.65486 1.36549 8.52888L2.50714 7.17792ZM1.60295 5.08973C1.60295 4.49521 1.71961 3.98577 1.93592 3.54431L0.347605 2.76603C-0.000327349 3.4761 -0.165795 4.25637 -0.165795 5.08973H1.60295ZM1.93536 3.54546C2.33766 2.72743 3.04808 2.09217 4.16737 1.66744L3.53985 0.0137563C2.07972 0.567825 0.982238 1.47561 0.348172 2.76488L1.93536 3.54546ZM4.17059 1.66621C5.34726 1.21446 6.66033 0.982238 8.12002 0.982238V-0.786507C6.47058 -0.786507 4.93938 -0.52357 3.53663 0.0149851L4.17059 1.66621ZM8.12002 0.982238C9.60873 0.982238 11.0108 1.1476 12.3291 1.47444L12.7547 -0.242331C11.2862 -0.606413 9.74042 -0.786507 8.12002 -0.786507V0.982238ZM11.6602 0.547384L11.4443 3.31968L13.2077 3.45702L13.4236 0.684721L11.6602 0.547384ZM12.4907 2.51945C11.5705 2.34505 10.7279 2.25352 9.96822 2.25352V4.02227C10.5904 4.02227 11.3196 4.09772 12.1613 4.25725L12.4907 2.51945ZM21.1196 3.93245L21.1147 4.81681L22.0135 4.82179L22.0039 3.92304L21.1196 3.93245ZM20.7396 2.7838L20.1378 3.43191L20.1455 3.43887L20.7396 2.7838ZM18.5373 2.87017L19.1498 3.50817L19.1563 3.5018L18.5373 2.87017ZM18.0018 3.91518L17.1292 3.77173L16.9612 4.7938L17.9969 4.79954L18.0018 3.91518ZM24.5051 8.63068L25.0393 9.33544L25.3572 9.09445L25.387 8.69665L24.5051 8.63068ZM22.5964 9.33887L22.4063 8.47516L22.4011 8.47633L22.5964 9.33887ZM15.9636 9.09705L15.6621 9.92844L15.6693 9.931L15.9636 9.09705ZM14.4523 8.29386L13.9033 8.98733L13.914 8.99555L14.4523 8.29386ZM13.4418 7.0243L12.649 7.41632L12.6508 7.4198L13.4418 7.0243ZM14.4782 1.66106L15.0663 2.32155L15.0667 2.32115L14.4782 1.66106ZM22.5619 0.702416L22.9156 -0.108188L22.9073 -0.111721L22.5619 0.702416ZM24.5915 2.56789L23.7961 2.95454L23.7985 2.95947L24.5915 2.56789ZM24.9369 4.11381L25.819 4.17796L25.8213 4.14593V4.11381H24.9369ZM24.8333 5.53883L24.8289 6.42319L25.6554 6.42727L25.7153 5.60298L24.8333 5.53883ZM17.8291 5.50428L17.8335 4.61992L16.6798 4.61423L16.974 5.72981L17.8291 5.50428ZM18.8309 6.7393L18.3958 7.50921L18.3993 7.5112L18.8309 6.7393ZM24.2028 6.43702V5.55265H24.0261L23.8629 5.62056L24.2028 6.43702ZM24.6692 6.43702L25.5511 6.50299L25.6222 5.55265H24.6692V6.43702ZM22.0039 3.92304C21.9971 3.28333 21.8501 2.59703 21.3337 2.12873L20.1455 3.43887C20.135 3.42943 20.1554 3.44069 20.1807 3.51714C20.2074 3.5981 20.2331 3.73337 20.2353 3.94186L22.0039 3.92304ZM21.3414 2.13574C20.8772 1.70476 20.2683 1.56261 19.6687 1.56261V3.33135C20.0133 3.33135 20.1183 3.41375 20.1378 3.43186L21.3414 2.13574ZM19.6687 1.56261C19.0101 1.56261 18.3975 1.76889 17.9183 2.23854L19.1563 3.5018C19.2528 3.4072 19.3945 3.33135 19.6687 3.33135V1.56261ZM17.9248 2.23219C17.4895 2.65013 17.2271 3.17631 17.1292 3.77173L18.8745 4.05863C18.9148 3.81343 19.0093 3.64294 19.1498 3.50814L17.9248 2.23219ZM17.9969 4.79954L21.1147 4.81681L21.1245 3.04809L18.0067 3.03082L17.9969 4.79954ZM23.9708 7.92592C23.777 8.07288 23.3041 8.27754 22.4063 8.47517L22.7866 10.2026C23.7197 9.99716 24.5193 9.7297 25.0393 9.33544L23.9708 7.92592ZM22.4011 8.47633C21.5443 8.67034 20.7203 8.76541 19.9278 8.76541V10.5342C20.8625 10.5342 21.8177 10.4219 22.7917 10.2014L22.4011 8.47633ZM19.9278 8.76541C19.0944 8.76541 18.408 8.72607 17.8607 8.6524L17.6248 10.4053C18.2751 10.4929 19.0454 10.5342 19.9278 10.5342V8.76541ZM17.8607 8.6524C17.3238 8.58013 16.7898 8.45081 16.258 8.26309L15.6693 9.931C16.312 10.1578 16.9641 10.3164 17.6248 10.4053L17.8607 8.6524ZM16.2652 8.26568C15.7482 8.07813 15.3275 7.85067 14.9905 7.59217L13.914 8.99555C14.4176 9.3819 15.0045 9.6899 15.6621 9.92841L16.2652 8.26568ZM15.0012 7.60047C14.6976 7.3601 14.4396 7.04238 14.2328 6.62879L12.6508 7.4198C12.9622 8.04259 13.3779 8.57125 13.9033 8.98725L15.0012 7.60047ZM14.2345 6.63228C14.0485 6.25605 13.9375 5.77176 13.9375 5.15019H12.1688C12.1688 5.97954 12.3169 6.74465 12.6491 7.41631L14.2345 6.63228ZM13.9375 5.15019C13.9375 4.52801 14.0497 3.97859 14.2617 3.48996L12.6392 2.78583C12.3215 3.51782 12.1688 4.30993 12.1688 5.15019H13.9375ZM14.2617 3.48996C14.4847 2.97621 14.7578 2.59625 15.0663 2.32155L13.8901 1.00057C13.358 1.47436 12.9459 2.07896 12.6392 2.78583L14.2617 3.48996ZM15.0667 2.32115C16.0172 1.47369 17.4671 0.982238 19.5564 0.982238V-0.786507C17.2123 -0.786507 15.2767 -0.235832 13.8896 1.00097L15.0667 2.32115ZM19.5564 0.982238C20.4939 0.982238 21.3781 1.16086 22.2165 1.51655L22.9073 -0.111721C21.8457 -0.562092 20.7262 -0.786507 19.5564 -0.786507V0.982238ZM22.2082 1.51298C22.9908 1.85448 23.4966 2.33851 23.7961 2.95453L25.3868 2.18125C24.8802 1.13907 24.033 0.379451 22.9156 -0.108145L22.2082 1.51298ZM23.7985 2.95947C23.9637 3.29396 24.0525 3.67365 24.0525 4.11381H25.8213C25.8213 3.42548 25.6798 2.77455 25.3844 2.17631L23.7985 2.95947ZM24.0549 4.04967L23.9512 5.47468L25.7153 5.60298L25.819 4.17796L24.0549 4.04967ZM24.8376 4.65447L17.8335 4.61992L17.8248 6.38865L24.8289 6.42319L24.8376 4.65447ZM16.974 5.72981C17.1807 6.51378 17.6864 7.10824 18.3958 7.5092L19.2661 5.96939C18.9161 5.77156 18.7539 5.54268 18.6842 5.27875L16.974 5.72981ZM18.3993 7.5112C19.1166 7.91227 20.0136 8.07276 21.016 8.07276V6.30402C20.1759 6.30402 19.6162 6.16512 19.2625 5.96739L18.3993 7.5112ZM21.016 8.07276C22.0916 8.07276 23.273 7.78201 24.5427 7.25348L23.8629 5.62056C22.7259 6.09386 21.7828 6.30402 21.016 6.30402V8.07276ZM24.2028 7.32139H24.6692V5.55265H24.2028V7.32139ZM23.7873 6.37105L23.6232 8.56471L25.387 8.69665L25.5511 6.50299L23.7873 6.37105Z" fill="#F8D24E"/>
</svg>
