<svg xmlns="http://www.w3.org/2000/svg" aria-hidden="true" style="width:0;height:0;position:absolute;overflow:hidden"><defs><symbol id="icon-menu-burger" viewBox="0 0 32 32"><path d="M26.733 14H5.267c-.7 0-1.267.425-1.267.95v.1c0 .525.567.95 1.267.95h21.466c.7 0 1.267-.425 1.267-.95v-.1c0-.525-.567-.95-1.267-.95Zm0 6H5.267c-.7 0-1.267.425-1.267.95v.1c0 .525.567.95 1.267.95h21.466c.7 0 1.267-.425 1.267-.95v-.1c0-.525-.567-.95-1.267-.95Zm0-12H5.267C4.567 8 4 8.425 4 8.95v.1c0 .525.567.95 1.267.95h21.466c.7 0 1.267-.425 1.267-.95v-.1c0-.525-.567-.95-1.267-.95Z"/></symbol><symbol id="icon-close-white" viewBox="0 0 32 32"><path d="M23.884 6.706 16 14.59 8.116 6.706a.998.998 0 0 0-1.41 1.41L14.586 16l-7.882 7.882a.997.997 0 1 0 1.41 1.412L16 17.412l7.884 7.884a.998.998 0 0 0 1.41-1.41l-7.884-7.884 7.884-7.886a.997.997 0 1 0-1.41-1.412v.002Z"/></symbol><symbol id="icon-cloce-black" viewBox="0 0 32 32"><path d="m17.253 15.751 7.369-7.317a.875.875 0 0 0-.047-1.198.893.893 0 0 0-1.206-.046L16 14.507 8.631 7.181a.896.896 0 0 0-1.262 0 .885.885 0 0 0 0 1.254l7.378 7.317-7.378 7.317a.873.873 0 0 0-.249.992.883.883 0 0 0 .503.5.896.896 0 0 0 1-.247l7.378-7.317 7.369 7.317a.894.894 0 0 0 1.206-.046.875.875 0 0 0 .047-1.198l-7.369-7.317z"/></symbol><symbol id="icon-arrow-button" viewBox="0 0 32 32"><path d="M10.586 3.272a2 2 0 0 0 0 2.828l9.9 9.9-9.9 9.9a1.998 1.998 0 0 0 .025 2.804 2.001 2.001 0 0 0 2.804.025l11.314-11.314a2 2 0 0 0 0-2.828L13.415 3.273a2 2 0 0 0-2.828 0z"/></symbol><symbol id="icon-arrow-hero" viewBox="0 0 82 32"><path d="M81.414 17.414a2 2 0 0 0 0-2.828L68.686 1.858a2 2 0 1 0-2.828 2.828L77.172 16 65.858 27.314a2 2 0 1 0 2.828 2.828l12.728-12.728zM0 18h80v-4H0v4z"/></symbol><symbol id="icon-cow" viewBox="0 0 32 32"><path d="M6.168.192c-.261.225-1.006 1.781-1.274 2.63-.319 1.052-.427 1.841-.384 2.931.058 1.556.449 2.735 1.31 3.968.224.323.405.601.405.624 0 .015-.138.03-.311.03-.746 0-2.143.248-3.214.571-1.701.511-2.7 1.405-2.7 2.405 0 .353.319.954.659 1.262.659.594 2.1 1.157 3.649 1.428.536.098 2.128.263 2.483.271.065 0 .087.346.087 1.48 0 .977.036 1.736.109 2.202.261 1.668 1.071 3.434 2.143 4.682l.369.428-.246.398c-.362.564-.499.992-.543 1.631-.109 1.533.847 2.893 2.693 3.848 3.518 1.826 8.985 1.112 11.033-1.443.999-1.247 1.115-2.675.326-3.968l-.246-.398.442-.534c.825-.992 1.361-1.984 1.767-3.239.34-1.067.471-2.097.471-3.727 0-.744.022-1.36.058-1.36.333-.008 1.933-.18 2.44-.271 1.557-.271 2.968-.827 3.649-1.428.34-.308.659-.909.659-1.262 0-1.112-1.129-2.014-3.229-2.555-.688-.18-1.984-.398-2.613-.436l-.297-.023.326-.451c.405-.549.912-1.616 1.108-2.315.55-2.021.21-4.374-.97-6.62-.492-.932-.833-1.15-1.231-.782-.152.143-.217.338-.362 1.045-.449 2.247-1.281 4.028-2.498 5.343l-.536.586H10.247l-.478-.518C8.582 5.317 7.72 3.469 7.271 1.214 7.126.508 7.061.312 6.909.169c-.239-.218-.471-.21-.738.023zm.927 4.457c.384.842.862 1.631 1.426 2.36l.449.579-.471.353a4.73 4.73 0 0 0-1.173 1.368l-.138.248-.348-.473c-1.187-1.638-1.484-3.645-.854-5.726.304-1.007.297-.999.572-.128.13.421.376 1.06.536 1.42zM25.94 3.063c.297.894.413 1.608.413 2.532 0 1.368-.362 2.525-1.122 3.562l-.34.466-.253-.428a4.5 4.5 0 0 0-1.267-1.39c-.195-.128-.347-.255-.347-.271 0-.023.137-.195.311-.383.804-.894 1.665-2.502 2.092-3.885.13-.428.261-.782.282-.782s.13.263.232.579zm-3.699 5.493c.804.338 1.571 1.308 1.694 2.127.065.451.217.736.413.782.087.015.688.068 1.332.113 2.288.15 4.09.639 4.858 1.308.355.316.319.579-.109.902-.854.646-2.7 1.135-4.583 1.217-1.245.053-1.506.09-1.672.263-.123.128-.138.263-.138 1.623 0 1.841-.094 2.901-.326 3.757-.326 1.165-.97 2.405-1.723 3.284l-.311.361-.644-.383a7.965 7.965 0 0 0-2.389-.969c-2.744-.654-5.777-.256-7.819 1.029l-.471.301-.297-.353c-.405-.473-1.043-1.488-1.296-2.059-.557-1.293-.724-2.345-.724-4.659 0-2.247.116-2.082-1.549-2.172-2.128-.113-3.75-.496-4.771-1.142-.753-.481-.63-.909.42-1.413 1.006-.488 2.389-.781 4.308-.902 1.491-.098 1.528-.12 1.665-.842.203-1.09 1.006-1.991 2.02-2.277.253-.075 1.672-.09 6.016-.083l5.683.015.413.173zm-4.069 15.556c1.774.436 3.099 1.247 3.671 2.254.137.233.195.473.224.842.029.458.007.571-.166.947-.804 1.706-3.757 2.833-6.762 2.578-3.613-.301-5.987-2.315-5.053-4.291.507-1.067 2.223-2.089 4.033-2.39.297-.045.594-.098.652-.113s.71-.015 1.448 0c1.006.023 1.491.068 1.955.173z"/><path d="M10.99 12.321c-.449.15-.753.346-1.158.751-.355.338-.384.736-.087.977.275.225.536.195.869-.098.42-.368.746-.518 1.151-.518.405-.008.717.135 1.151.518.333.293.594.323.869.098.145-.12.188-.218.188-.443 0-.233-.051-.338-.304-.594-.717-.721-1.781-.999-2.679-.691zm8.442-.008c-.463.173-1.057.564-1.296.857-.232.286-.239.609 0 .849.239.256.529.241.876-.045.854-.706 1.491-.729 2.281-.075.203.173.434.308.507.308.355 0 .644-.316.644-.691 0-.24-.601-.797-1.144-1.06-.601-.293-1.318-.346-1.868-.143zM12.04 26.224c-.21.203-.282.496-.174.729.08.188.203.263.702.398.224.06.319.135.398.323.101.248.109.248.666.27l.557.023v-.21c-.007-.301-.174-.736-.391-1.037-.253-.346-.695-.571-1.195-.616-.34-.03-.427-.015-.565.12zm6.914-.053c-.362.098-.883.586-1.028.969-.065.173-.13.481-.137.684-.015.323.014.398.188.556.427.376.992.083.992-.518 0-.293.217-.496.601-.571.405-.075.55-.24.557-.624 0-.504-.449-.699-1.173-.496z"/></symbol><symbol id="icon-weight" viewBox="0 0 26 32"><path d="M10.622.547c-3.974.589-7.247 2.796-8.451 5.685-.384.913-.488 1.473-.488 2.573.007.812.037 1.114.163 1.553.259.863.443 1.301.827 1.919l.355.575-.399.489c-3.154 3.924-3.502 9.444-.872 13.793.983 1.632 2.586 3.234 4.152 4.169l.465.273 12.743-.108.303-.165c1.056-.597 2.549-1.926 3.383-3.004a12.61 12.61 0 0 0 2.423-5.621c.118-.74.118-2.932-.007-3.63-.377-2.149-1.182-3.989-2.453-5.621-.244-.309-.436-.568-.436-.589 0-.014.133-.237.288-.489a7.762 7.762 0 0 0 .864-1.962c.199-.719.199-2.516 0-3.234-.709-2.552-2.837-4.679-5.843-5.851-.842-.331-2.283-.683-3.213-.798-.864-.101-2.999-.079-3.804.043zm4.499 1.171c3.945.769 6.833 3.184 7.365 6.16.118.668.044 1.804-.155 2.437-.199.618-.569 1.344-1.005 1.962-.177.252-.325.539-.325.633s.155.338.377.582c1.847 2.048 2.822 4.614 2.822 7.389-.007 3.155-1.219 5.922-3.553 8.093-.399.374-.968.841-1.271 1.042l-.554.374-12.211.05-.473-.302c-1.714-1.114-3.258-2.954-4.115-4.909-1.079-2.472-1.189-5.34-.31-7.913.465-1.337 1.086-2.429 2.031-3.579.384-.46.561-.733.561-.863 0-.108-.192-.46-.443-.827-.886-1.287-1.248-2.717-1.034-4.068.222-1.366.842-2.487 1.987-3.601 1.492-1.445 3.575-2.401 6.02-2.76 1.012-.151 3.25-.093 4.285.101z"/><path d="M10.954 2.983c-3.029.496-5.4 2.178-6.176 4.384-.177.496-.207.69-.207 1.402s.03.906.207 1.402c.111.316.318.755.458.978.384.618.554.64 1.315.18a11.949 11.949 0 0 1 3.804-1.488c.916-.187 2.674-.259 3.671-.144 1.559.18 3.25.74 4.602 1.538.384.223.776.41.872.41.561 0 1.278-1.617 1.278-2.875 0-2.796-2.674-5.189-6.464-5.786-.805-.129-2.585-.129-3.361 0zm3.657 1.15c1.271.273 2.438.791 3.317 1.473 1.182.913 1.817 2.185 1.714 3.414-.037.489-.222 1.15-.332 1.222-.029.014-.443-.158-.916-.388a14.721 14.721 0 0 0-3.228-1.1c-.687-.144-.975-.165-2.512-.158-1.514 0-1.832.022-2.489.158a13.254 13.254 0 0 0-3.117 1.064c-1.101.525-1.042.532-1.241-.115-.259-.841-.096-1.955.406-2.796.266-.446.997-1.186 1.529-1.553 1.012-.697 1.899-1.013 3.804-1.358.391-.072 2.563.029 3.066.137zm-1.204 9.272c-.207.259-.207.503.007.712.14.137.281.173.79.208.99.072 1.935.359 2.785.848.606.359 1.529 1.229 1.943 1.854.613.898 1.034 2.185 1.034 3.134 0 .331.029.431.185.575.236.237.547.237.776 0 .163-.165.17-.208.125-.913-.207-3.479-3.184-6.383-6.744-6.577l-.739-.043-.162.201z"/></symbol><symbol id="icon-ice-crema" viewBox="0 0 32 32"><path d="M16.108.107c.08.214.241 1.252.241 1.573 0 .797-.295 1.54-.837 2.122-.449.482-.897.75-1.975 1.185-1.198.489-1.694.783-2.256 1.339-.569.569-.904 1.192-1.024 1.921-.134.797 0 1.359.408 1.68l.208.161-.328.208c-.663.435-1.868 1.459-2.075 1.774-.402.603-.361 1.165.094 1.392l.214.107-.241.228c-.361.341-.435.576-.382 1.192.033.408.02.629-.074.964-.114.435-.114.442.033.75.147.301.562.683.937.843.181.08.187.107.228.723.02.355.053 1.486.08 2.517.02 1.031.067 1.975.107 2.089a.79.79 0 0 0 .274.361c.388.268.656.556.83.89.194.382.408 1.319 1.058 4.559l.455 2.276.281.268c.536.529 1.56.77 3.247.77 1.694 0 2.705-.234 3.24-.763l.288-.274.415-2.109c.917-4.613.997-4.867 1.714-5.436.221-.181.435-.402.475-.502.047-.114.094-.991.127-2.316.027-1.178.067-2.343.094-2.591l.04-.449.435-.328c.549-.422.763-.803.763-1.393-.007-.696-.462-1.459-1.292-2.142l-.395-.321.194-.274c.81-1.118.301-2.664-1.205-3.695l-.455-.315.167-.174c.743-.797.864-3.173.241-4.827-.375-.984-1.232-2.055-2.283-2.845C17.659.857 16.239 0 16.112 0c-.027 0-.027.047-.007.107zm1.928 2.336c.355.348.783.823.951 1.064.997 1.392 1.252 3.14.649 4.425-.241.522-.964 1.299-1.633 1.761-1.024.71-3.327 1.901-4.934 2.557-2.584 1.051-4.084 1.252-4.258.562-.067-.261.127-.469.951-1.018.743-.509 4.077-2.986 4.137-3.086.02-.027-.321.127-.75.341-1.453.736-2.142.596-2.109-.428.02-.743.556-1.587 1.299-2.069.187-.12.77-.388 1.305-.603 1.761-.71 2.296-1.071 2.892-1.962.355-.529.743-1.506.77-1.921.007-.147.034-.261.054-.261s.321.288.676.636zm1.828 7.606c.489.274.997.743 1.218 1.111.388.663.187 1.325-.649 2.169-.91.924-2.464 1.808-4.171 2.37-1.573.515-3.079.756-5.235.83l-1.339.047.87.054c1.125.074 3.3.007 4.144-.127 2.243-.355 4.151-1.064 5.516-2.042.308-.221.629-.402.716-.402.221 0 1.185.924 1.379 1.312.107.221.134.382.114.596-.1.89-1.185 1.366-3.802 1.68-3.2.382-7.384.007-9.172-.817-.844-.388-.984-.609-.77-1.198.067-.187.08-.408.054-.723-.033-.415-.027-.469.12-.623.335-.361.897-.569 2.959-1.091a28.11 28.11 0 0 0 2.176-.656c1.138-.415 3.274-1.493 4.264-2.156.93-.616 1.064-.643 1.607-.335zm-8.89 8.194c1.406.408 2.651.529 4.967.482 1.741-.034 2.812-.141 4.358-.415.315-.053.589-.1.623-.1.074 0 .053 2.571-.027 3.247-.087.716-.281 1.272-.489 1.406-.214.141-1.285.288-2.718.368-2.939.161-5.958 0-6.895-.375-.509-.207-.562-.475-.569-2.959 0-1.654.013-1.881.1-1.848.053.02.348.107.649.194zm1.586 5.69c.482.06 1.004.121 1.165.141l.288.034-.254.281c-.328.355-.83 1.064-1.011 1.426-.207.415-.274.442-.582.274l-.261-.147-.147-.91c-.08-.495-.167-.971-.187-1.051-.06-.174-.12-.174.991-.047zm7.137-.074c0 .013-.033.187-.067.382-.04.201-.208 1.292-.375 2.43-.341 2.377-.569 3.495-.777 3.869-.288.502-.977.797-2.095.89-.435.034-1.747-.053-1.821-.12-.053-.06 1.098-1.486 1.279-1.58.167-.094.214-.08.783.214.663.348.997.402.997.181s-.174-.435-.602-.73c-.395-.281-.536-.442-.536-.629 0-.053.194-.355.428-.669s.576-.817.75-1.118l.328-.542.301.04c.609.087.77.08.75-.053-.013-.067-.127-.261-.254-.422-.127-.167-.228-.335-.228-.368 0-.127.623-1.299.823-1.546.174-.214.315-.321.315-.228zm-4.184.536c.335.221 1.593 1.312 1.674 1.446.034.06-1.259 2.082-1.513 2.37-.027.034-.167-.033-.308-.141a22.133 22.133 0 0 0-1.165-.803l-.904-.596.542-.917c.964-1.613.944-1.587 1.151-1.587.107 0 .341.1.522.228zm2.537.241c-.234.288-.428.469-.509.469-.174 0-.455-.154-.93-.502l-.395-.288.79-.047c.428-.02.844-.047.917-.06.536-.087.536-.08.127.428zm-5.061 3.22c.616.241 1.66.81 1.962 1.064.214.174.214.187.127.402a6.675 6.675 0 0 1-.415.716c-.174.268-.375.602-.449.743-.214.415-.281.449-.723.328-.475-.141-.73-.382-.864-.817-.181-.609-.469-2.33-.435-2.598.013-.1.295-.04.797.161z"/></symbol><symbol id="icon-ellipse-slider" viewBox="0 0 32 32"><path d="M32 16c0 8.837-7.163 16-16 16S0 24.837 0 16 7.163 0 16 0s16 7.163 16 16z"/></symbol><symbol id="icon-github" viewBox="0 0 20 20"><path d="M10 0C4.507 0 0 4.507 0 10c0 4.687 3.289 8.945 7.656 10v-3.308a2.446 2.446 0 0 1-1.271-.033c-.591-.174-1.071-.568-1.428-1.168-.227-.383-.63-.8-1.05-.769l-.103-1.167c.909-.078 1.694.554 2.16 1.337.208.349.447.553.753.643.295.088.613.046.983-.085.093-.741.433-1.018.69-1.41-2.605-.388-3.643-1.77-4.055-2.86-.546-1.449-.253-3.258.712-4.402.019-.022.053-.08.04-.12-.443-1.338.096-2.444.116-2.561.511.15.594-.152 2.22.835l.28.169c.118.07.08.03.198.02A8.487 8.487 0 0 1 10 4.828c.71.009 1.42.11 2.127.302l.091.01c-.008-.002.025-.006.08-.039 2.03-1.23 1.957-.828 2.502-1.005.02.118.551 1.242.114 2.562-.06.182 1.76 1.848.751 4.522-.412 1.09-1.45 2.473-4.054 2.861.334.51.735.78.733 1.83V20C16.71 18.945 20 14.687 20 10c0-5.493-4.507-10-10-10Z"/></symbol><symbol id="icon-telegram" viewBox="0 0 22 16"><path d="m8.673 10.524-.338 4.43c.483 0 .692-.194.943-.426l2.264-2.02 4.69 3.207c.86.447 1.466.211 1.698-.739l3.08-13.464V1.51c.273-1.186-.46-1.65-1.298-1.36L1.615 6.617C.38 7.065.399 7.707 1.405 8l4.627 1.343 10.747-6.276c.505-.313.965-.14.587.173l-8.693 7.285Z"/></symbol><symbol id="icon-facebook" viewBox="0 0 11 22"><path d="M9.723 10.98H6.95V21.2H2.748V10.98H.75V7.39h1.998V5.065C2.748 3.403 3.533.8 6.988.8L10.1.813V4.3H7.842c-.37 0-.892.187-.892.98v2.113h3.14l-.367 3.588Z"/></symbol><symbol id="icon-ep_arrow-right-bold" viewBox="0 0 32 32"><path d="M10.586 3.272a2 2 0 0 0 0 2.828l9.9 9.9-9.9 9.9a1.998 1.998 0 0 0 .025 2.804 2.001 2.001 0 0 0 2.804.025l11.314-11.314a2 2 0 0 0 0-2.828L13.415 3.273a2 2 0 0 0-2.828 0z"/></symbol><symbol id="icon-clarity_close-line" viewBox="0 0 32 32"><path d="m17.253 16 7.369-7.369a.885.885 0 0 0-.047-1.206.893.893 0 0 0-1.207-.047l-7.369 7.369L8.63 7.369a.892.892 0 0 0-1.262 1.262L14.746 16l-7.378 7.369a.891.891 0 0 0-.05 1.304.89.89 0 0 0 1.304-.05L16 17.254l7.369 7.369a.886.886 0 0 0 1.207-.047.885.885 0 0 0 .047-1.206l-7.369-7.369z"/></symbol><symbol id="icon-logo" viewBox="0 0 48 45"><path fill="#F8D24E" d="M24.487 19.925c2.299-6.166-2.462-9.54-5.617-11.76-.604-.452-1.207-.876-1.696-1.263a5.892 5.892 0 0 1-1.854-2.769 5.83 5.83 0 0 1-.046-3.32.637.637 0 0 0-.187-.642.654.654 0 0 0-.664-.132 10.66 10.66 0 0 0-2.926 1.723 6.893 6.893 0 0 0-1.993 2.405 6.81 6.81 0 0 0-.716 3.027A8.026 8.026 0 0 0 7.225 8.81a5.878 5.878 0 0 0-1.152 3.786 7.492 7.492 0 0 0-2.09 3.222 7.417 7.417 0 0 0-.21 3.82c-.384.23-.681.578-.846.99a2.005 2.005 0 0 0-.067 1.296c.122.427.383.803.742 1.07s.797.41 1.246.407h.042v3.506c0 .356.143.697.398.949.254.252.6.393.96.393h1.055l1.72 14.728c.036.328.193.631.441.851.249.22.57.342.904.342h7.156c.334-.001.656-.123.905-.343.25-.22.408-.522.447-.85l1.72-14.728h1.055c.36 0 .706-.141.96-.393.255-.252.398-.593.398-.949v-3.506h.042a2.07 2.07 0 0 0 1.455-.596c.386-.38.602-.898.602-1.437a1.987 1.987 0 0 0-.603-1.45l-.018.007ZM8.999 8.738c.869 3.226 4.223 4.496 7.282 5.63a.663.663 0 0 0 .959-.32.642.642 0 0 0-.23-.762.662.662 0 0 0-.264-.111c-3.294-1.235-6.402-2.385-6.637-5.683a5.46 5.46 0 0 1 .501-2.637 5.529 5.529 0 0 1 1.701-2.091 9.846 9.846 0 0 1 1.472-1.002 7.666 7.666 0 0 0 0 1.24c.07.945.332 1.866.77 2.71A7.081 7.081 0 0 0 16.33 7.91c.5.423 1.122.858 1.81 1.323 1.587 1.127 3.39 2.385 4.537 4.09a6.307 6.307 0 0 1 .658 6.052h-2.667c-5.497.001-11.814-1.502-13.063-5.711a4.775 4.775 0 0 1 .006-2.649 4.822 4.822 0 0 1 1.418-2.247l-.03-.03Zm4.947 20.328 2.016 1.991-2.016 1.992-2.015-2.004 2.015-1.98Zm4.622 5.23-1.665 1.645-2.015-1.992 2.015-1.985 1.75 1.723-.085.608Zm-4.622 4.567-2.015-1.992 2.015-1.992 2.016 1.992-2.016 1.992Zm-.923-4.902-2.015 1.992-1.677-1.658-.073-.596 1.75-1.723 2.015 1.985Zm-2.944 2.91-.404.4-.103-.907.507.507Zm-.211 2.04 1.14-1.128 2.214 2.207c.012.044.026.088.043.13h-3.259l-.138-1.21Zm7.023-1.128 1.14 1.127-.139 1.193h-3.348l2.347-2.32Zm1.327-.512-.404-.4.513-.507-.109.907Zm.604-5.212-1.008-1.014 1.279-1.264-.271 2.278Zm-1.937-1.92-1.913-1.884h3.825l-1.912 1.884Zm-5.883 0-1.913-1.884h3.826l-1.913 1.884Zm6.516 12.737h-7.15a.048.048 0 0 1-.042-.042l-.169-1.431h7.578l-.162 1.431a.048.048 0 0 1-.048.042h-.007ZM23.051 22.1h-2.1a.667.667 0 0 0-.505.166.651.651 0 0 0-.215.481.643.643 0 0 0 .215.481.66.66 0 0 0 .505.166h.748V26.9a.048.048 0 0 1-.048.042H6.223a.048.048 0 0 1-.048-.042v-3.506h11.953a.66.66 0 0 0 .423-.21.646.646 0 0 0 0-.874.66.66 0 0 0-.423-.21H4.854a.754.754 0 0 1-.752-.438.732.732 0 0 1 .18-.844.751.751 0 0 1 .572-.19h1.37a.66.66 0 0 0 .423-.21.646.646 0 0 0 0-.875.66.66 0 0 0-.424-.21H5.017a6.32 6.32 0 0 1 .082-2.736 6.363 6.363 0 0 1 1.233-2.451c.422 1.3 1.508 3.077 4.224 4.49 2.552 1.317 5.93 1.991 10.04 1.991h2.413a.757.757 0 0 1 .572.19.74.74 0 0 1 .243.547.733.733 0 0 1-.243.546.749.749 0 0 1-.572.19h.042Zm4.817 17.156-.483.74.01.007.473-.747Zm5.199.25.884-.02-.023-1.023-1.01.171.149.872Zm.06 2.72.225.856.675-.178-.016-.697-.884.02Zm-6.823.13.199-.862h-.005l-.194.862Zm-3.368-1.503.573-.674-.002-.001-.57.675ZM21.72 38.09l.884.004v-.004h-.884Zm.423-1.935-.794-.39v.001l.794.39Zm2.712-2.314.313.826h.004l-.317-.826Zm8.688-.225.882.069.058-.747-.727-.18-.213.858Zm-.216 2.772-.165.87.97.183.077-.984-.882-.069Zm-2.358-1.134c-1.327 0-2.443.141-3.258.5-.417.183-.797.442-1.074.807a2.081 2.081 0 0 0-.421 1.278h1.768a.32.32 0 0 1 .063-.21c.046-.06.15-.156.376-.256.475-.209 1.294-.35 2.546-.35v-1.77Zm-4.753 2.585c0 .91.408 1.66 1.17 2.158l.966-1.482c-.263-.171-.367-.365-.367-.676h-1.77Zm1.18 2.164c.722.457 1.675.63 2.744.63v-1.77c-.923 0-1.484-.156-1.798-.355l-.947 1.495Zm2.744.63c1.05 0 2.075-.085 3.076-.255l-.296-1.744c-.9.153-1.826.23-2.78.23v1.768Zm2.044-1.107.06 2.72 1.768-.04-.06-2.72-1.768.04Zm.72 1.845c-1.012.266-2.127.403-3.351.403v1.769c1.355 0 2.624-.151 3.8-.461l-.45-1.71Zm-3.351.403c-1.25 0-2.26-.098-3.049-.28l-.397 1.724c.962.221 2.116.325 3.446.325v-1.769Zm-3.054-.28c-.845-.19-1.454-.39-1.86-.589l-.777 1.59c.584.285 1.344.522 2.25.724l.387-1.726Zm-1.86-.589a5.384 5.384 0 0 1-1.13-.726l-1.144 1.349a7.13 7.13 0 0 0 1.497.966l.776-1.589Zm-1.13-.727c-.602-.508-.91-1.172-.905-2.084l-1.769-.009c-.007 1.391.497 2.57 1.532 3.444l1.141-1.351Zm-.905-2.088c0-.595.117-1.104.333-1.546l-1.588-.778c-.348.71-.514 1.49-.514 2.324h1.769Zm.332-1.545c.403-.818 1.113-1.453 2.232-1.878l-.627-1.653c-1.46.554-2.558 1.462-3.192 2.75l1.587.781Zm2.236-1.879c1.176-.451 2.49-.684 3.949-.684v-1.768c-1.65 0-3.18.262-4.583.801l.634 1.651Zm3.949-.684c1.489 0 2.89.166 4.21.492l.425-1.716a19.201 19.201 0 0 0-4.635-.544v1.768Zm3.54-.435-.216 2.773 1.764.137.216-2.772-1.764-.138Zm.83 1.973c-.92-.175-1.762-.267-2.522-.267v1.77c.622 0 1.352.075 2.193.234l.33-1.737Zm8.63 1.412-.005.885.898.005-.01-.899-.883.01Zm-.38-1.148-.602.648.008.007.594-.655Zm-2.203.086.613.638.006-.006-.619-.632Zm-.535 1.045-.873-.143-.168 1.022 1.036.006.005-.885Zm6.503 4.716.534.704.318-.24.03-.398-.882-.066Zm-1.909.708-.19-.864-.005.001.195.863Zm-6.632-.242-.302.831.007.003.295-.834Zm-1.512-.803-.549.693.011.008.538-.701Zm-1.01-1.27-.793.392.002.004.79-.396Zm1.036-5.363.588.66-.588-.66Zm8.084-.959.354-.81-.009-.004-.345.814Zm2.03 1.866-.796.387.002.005.794-.392Zm.345 1.546.882.064.002-.032v-.032h-.884Zm-.104 1.425-.004.884.826.004.06-.824-.882-.064Zm-7.004-.035.005-.884-1.154-.006.294 1.116.855-.226Zm1.002 1.235-.435.77.003.002.432-.772Zm5.372-.302v-.884h-.177l-.163.068.34.816Zm.466 0 .882.066.071-.95h-.953v.884Zm-2.665-2.514c-.007-.64-.154-1.326-.67-1.794l-1.189 1.31c-.01-.01.01.002.036.078.026.081.052.216.054.425l1.769-.019Zm-.663-1.787c-.464-.431-1.073-.573-1.672-.573v1.768c.344 0 .45.083.469.1l1.203-1.295Zm-1.672-.573c-.659 0-1.271.206-1.75.675l1.237 1.264c.097-.095.239-.17.513-.17v-1.77Zm-1.744.67a2.697 2.697 0 0 0-.796 1.539l1.745.287a.93.93 0 0 1 .276-.55l-1.225-1.277Zm.072 2.567 3.118.017.01-1.769-3.118-.017-.01 1.769Zm5.974 3.126c-.194.147-.667.352-1.565.55l.38 1.727c.934-.206 1.733-.473 2.253-.868l-1.068-1.41Zm-1.57.55c-.857.194-1.68.29-2.473.29v1.768c.934 0 1.89-.112 2.864-.333l-.39-1.725Zm-2.473.29c-.834 0-1.52-.04-2.067-.114l-.236 1.753c.65.088 1.42.13 2.303.13v-1.77Zm-2.067-.114a8.02 8.02 0 0 1-1.603-.389l-.589 1.668a9.787 9.787 0 0 0 1.956.474l.236-1.753Zm-1.596-.386a4.728 4.728 0 0 1-1.275-.674l-1.076 1.404c.504.386 1.09.694 1.748.932l.603-1.662Zm-1.264-.666a2.818 2.818 0 0 1-.768-.971l-1.582.79a4.584 4.584 0 0 0 1.252 1.568l1.098-1.387Zm-.767-.968c-.186-.376-.297-.86-.297-1.482H33.17c0 .83.148 1.595.48 2.266l1.585-.784Zm-.297-1.482c0-.622.113-1.171.325-1.66l-1.623-.704a5.884 5.884 0 0 0-.47 2.364h1.769Zm.325-1.66c.223-.514.496-.894.804-1.168L34.89 34c-.532.473-.944 1.078-1.25 1.785l1.622.704Zm.805-1.169c.95-.847 2.4-1.339 4.49-1.339v-1.768c-2.345 0-4.28.55-5.667 1.787l1.177 1.32Zm4.49-1.339c.937 0 1.821.179 2.66.535l.69-1.629a8.5 8.5 0 0 0-3.35-.674v1.768Zm2.651.531c.783.342 1.289.826 1.588 1.442l1.59-.774c-.506-1.042-1.353-1.801-2.47-2.29l-.708 1.622Zm1.59 1.447c.166.334.255.714.255 1.154h1.768c0-.688-.141-1.34-.437-1.938l-1.586.783Zm.257 1.09-.104 1.425 1.764.128.104-1.425-1.764-.128Zm.783.605-7.005-.035-.008 1.769 7.004.034.009-1.769Zm-7.864 1.075c.207.784.712 1.378 1.422 1.78l.87-1.54c-.35-.198-.512-.427-.582-.691l-1.71.45Zm1.425 1.781c.718.401 1.615.562 2.617.562v-1.769c-.84 0-1.4-.139-1.753-.337l-.864 1.544Zm2.617.562c1.076 0 2.257-.291 3.527-.82l-.68-1.632c-1.137.473-2.08.683-2.847.683v1.769Zm3.187-.752h.466v-1.768h-.466v1.768Zm-.416-.95-.164 2.194 1.764.132.164-2.194-1.764-.132Z"/></symbol></defs></svg>