<svg version="1.0" xmlns="http://www.w3.org/2000/svg" width="933.333" height="933.333" viewBox="0 0 700 700"><path d="M125.5.7C111.7 1.9 90.5 8.2 77 15 38.4 34.6 12.6 68.3 2.8 112.1L.5 122.5v455l2.3 10.4c12.8 56.8 52.7 96.8 109.5 109.3l10.2 2.3h227c215.3 0 227.5-.1 236-1.8 8.8-1.8 30.9-8.6 30.2-9.3-.2-.2-4.4.5-9.3 1.5-20.9 4.6-49.2 5.2-70.4 1.5-21.8-3.7-40.3-12.6-51.1-24.3l-5.9-6.4v25l-5.7 1.6c-43.1 11.8-100.3 7.8-132-9.3-25.1-13.5-35.8-30.4-35.7-56 .1-13.6 1.8-21.2 7.5-32.1 11.2-21.6 32.8-35 68.1-42.1 9.9-2 14.2-2.3 35.3-2.3 25.7 0 36.6 1.2 57.8 6.2l10.8 2.5-.7 11.1-.7 11.1 3.2-3.7c7.8-8.8 22.2-17.4 36.7-22 20.5-6.5 51-7.5 70.8-2.3 30.4 7.9 49.4 26.3 53.6 51.8 1 6.6-.6 38.8-2.1 39.8-.9.6-3.3 30.9-2.5 31.7.8.9 9.2-6.2 17.3-14.5 18.2-18.9 30.5-42.2 36.5-69.5l2.3-10.2v-455l-2.3-10.2c-9.7-43.8-36-78.2-74.7-97.5-9.3-4.7-19.7-8.4-32.5-11.6L579.5.5l-225-.1c-123.7 0-226.8.1-229 .3zm108 108.8c2.9 2.8 2.9 2.9 1 12-1.9 9-1.9 25.2 0 33.5 3.4 14.5 10.5 27.7 20.5 38 3.6 3.6 16.3 13.8 28.4 22.5 29.7 21.5 35.3 26 48.6 39.4 21.1 21.2 31.8 41.4 35 66 1.7 13.4.2 27.9-4.6 43.9l-2.5 8.3 3.1 4.7c5.6 8.5 6.4 18.5 2.2 26.9-4.1 8-15.2 15.3-23.3 15.3-1.6 0-1.8 2-2.1 26.3l-.3 26.4-2.8 4.2c-4.1 6.1-8.9 8.1-20.4 8.1-6.3 0-9.3.4-9.3 1.1 0 2.5-23.1 198.5-23.7 200.7-1 4-7.4 9.9-12 11.1-3 .8-19.5 1.1-55.5.9l-51.3-.3-3.7-2.3c-8-5-6.9 1-19.9-110.1-6.5-55.3-11.9-100.7-11.9-100.8 0 0-4.6-.3-10.3-.5-9.1-.3-10.8-.6-14-2.8-2-1.3-4.5-4.1-5.6-6.1-2-3.4-2.1-5.3-2.1-29.8V420h-2.3c-10.3 0-22.1-8.9-25.1-18.9-2-6.8-2-9.4 0-16 1.1-3.7 3-6.7 6.5-10.4l5-5.2-.6-5.4c-1.1-9-.6-26.3.9-33.8 4.1-19.1 11.3-33.3 25.1-48.8l6.2-7 .1-7c.4-19.8 9.9-39.4 27.8-57l8.1-8 .7-7.4c2.2-22.6 12.5-43.4 29-58.9 15-13.9 40.5-29.1 49.4-29.2 2.2 0 4.1.8 5.7 2.5z"/><path d="M209.5 133.2c-21.7 13.5-34.4 28.7-40.7 48.8-3.3 10.8-3.3 29.4 0 39.5 7.3 21.8 23.9 36.2 58.7 50.8 7.2 3 17.3 7.1 22.7 9.1 5.3 2 10.2 4.4 10.9 5.2 2.3 2.8 1.6 8.4-1.5 11-1.5 1.3-3.6 2.4-4.6 2.4-3.1 0-30.6-10.8-44.9-17.6-32.7-15.6-49.1-31.8-57.6-56.9-.6-1.8-1.2-1.4-5.9 3.6-13.9 14.9-19.8 38.1-14.7 58.1 10.8 42.2 59.4 69.2 139.6 77.8 5.5.6 24.2 1.3 41.7 1.7l31.6.6 2.7-8.4c3.9-12.1 4.6-31.5 1.6-44.2-7.1-29.9-25.6-50.7-77.6-87.2-28.6-20-37-28.9-46.5-48.7-5.5-11.5-8-22-8.7-36.6-.3-6.7-.9-12.2-1.2-12.2-.3 0-2.8 1.4-5.6 3.2z"/><path d="M112 300.2c-12 16.4-17.9 39.6-15.4 60.5l.7 5.3h9.3c8.3 0 9.6.2 12 2.4 3.6 3 3.9 8.6.6 11.9-2 2-3.5 2.2-15.7 2.7-13.1.5-13.5.6-16.2 3.3-3.8 3.8-3.8 9.6 0 13.4l2.7 2.8 93.6.5 93.6.5 2.4 2.8c3.2 3.8 3.1 7.2-.5 10.8l-2.9 2.9H113v48h210v-48h-7.1c-6.5 0-7.3-.2-10-2.9-3.6-3.6-3.7-7-.5-10.8l2.4-2.8 19.2-.5 19.2-.5 2.4-2.8c3.5-4 3.3-9.9-.4-13.6l-2.7-2.8-34-.6c-45-.8-68.9-3.5-96.5-10.8-48.2-12.8-83.9-38.5-96.5-69.6-1.2-2.9-2.5-5.6-2.8-5.9-.3-.3-2 1.4-3.7 3.8zM153 485.8c0 .7 13.8 14.5 22.1 22l3.5 3.3 12.7-12.2c7-6.6 12.7-12.5 12.7-13s-10.9-.9-25.5-.9c-14 0-25.5.3-25.5.8zM232 485.7c0 .5 5.9 6.4 13.1 13.2l13.1 12.4 12.4-12.4c6.8-6.8 12.4-12.7 12.4-13.1 0-.5-11.5-.8-25.5-.8s-25.5.3-25.5.7zM204 509.5 190.5 523l13.8 13.8 13.7 13.7 13.7-13.7 13.8-13.8-13.5-13.5c-7.4-7.4-13.7-13.5-14-13.5-.3 0-6.6 6.1-14 13.5zM278 514.5l-8.5 8.5 7 7c3.8 3.8 7.1 6.8 7.3 6.6.2-.3 1-5.8 1.8-12.3.7-6.5 1.6-13.3 1.8-15.1.3-1.7.2-3.2-.2-3.2s-4.5 3.8-9.2 8.5zM166.7 546.8c-16.3 16.3-16.3 16.3 3.4 34.3l9 8.2 13.5-13.4c7.4-7.3 13.4-13.6 13.4-13.9 0-.3-6.2-6.4-13.9-13.7l-13.8-13.1-11.6 11.6zM244 548.5 230.5 562l13.8 13.7 13.7 13.8 11.4-11.4c10-10 11.4-11.8 11.9-15.5l.6-4.1-11.7-11.8c-6.4-6.4-11.9-11.7-12.2-11.7-.3 0-6.6 6.1-14 13.5zM204 587.5 190.5 601l13.7 13.7 13.8 13.7 13.2-12.9c7.3-7.2 13.5-13.4 13.7-13.9.3-.8-25.8-27.6-26.9-27.6-.3 0-6.6 6.1-14 13.5zM159.1 596c0 1.4.4 4.4.7 6.8l.7 4.3 3-3.1 2.9-3-3.7-3.8c-3.6-3.6-3.7-3.6-3.6-1.2zM273 597.5l-3.4 3.5 3.1 3.2 3.1 3.1.7-5.6c.4-3.1.5-6.1.3-6.7-.2-.6-1.9.5-3.8 2.5zM170.6 620.9l-7.8 7.9.7 6.3c1.1 10.9-1.4 9.9 23.6 9.9 12 0 21.9-.3 21.9-.8 0-.4-6.9-7.6-15.3-16L178.5 613l-7.9 7.9zM241.4 629.1 225.5 645h46.2l.7-6.1c1.1-11.4 1.3-11-7.2-18.7l-7.9-7.1-15.9 16zM167.4 668.2c.4 3.5 1 8 1.3 10l.6 3.8h48.8c45.6 0 48.8-.1 49.3-1.8.3-.9.8-5.4 1.2-10l.7-8.2H166.7l.7 6.2zM401.3 568.1c-12.9 1-24.4 3.3-35.3 7.1-26.7 9.4-39.1 25.8-37.8 50 .5 7.5 1 9.5 4 15 8.1 14.7 28.4 25 58.3 29.3 16.5 2.4 54.1 1.7 63.8-1.1 1.4-.4 1.7-1.7 1.7-7.6v-7l-5.3.6c-2.9.4-12.3.7-20.8.7-21.6 0-32.7-3-42.4-11.4-6.6-5.7-9.8-12.7-10.3-22.5-.6-10.3 1.2-15.4 7.4-21.6 10.6-10.7 32.2-15.6 61.6-14.2l13.6.7.7-6.6c.4-3.6.5-6.9.1-7.2-1.2-1.2-16.7-3.3-31.6-4.3-8.5-.5-15.9-.9-16.5-.9-.5.1-5.6.5-11.2 1zM552.6 568c-12.9 1.2-21.9 3.6-32.1 8.5-11 5.3-15.6 9.1-20.7 16.9-9.7 15.1-11.2 36.5-3.6 50.8 6 11.2 17 18.3 36.3 23.4 8.7 2.3 12.6 2.7 30 3.1 17.2.5 21.7.2 32.2-1.6 6.6-1.1 15.2-3.1 19-4.3 6.7-2.3 6.8-2.3 7.1-6.2.3-2.9 0-3.7-1-3.4-.7.3-5.3 1.6-10.3 2.9-7.7 2-11.4 2.4-25 2.4-13.7 0-17-.3-23-2.2-9.2-2.9-18.5-9-22.9-15-3.4-4.6-7.6-15.4-9.1-23.6-.6-3.2-.5-3.7 1.2-3.7 1.6 0 2.1-1.2 3.1-7.7 2.2-14.2 8.6-23.9 19-29 5-2.5 6.8-2.8 15.2-2.8 10.9 0 16.2 1.8 21.9 7.6 5.5 5.5 7.4 11 7.9 22.7l.4 10.3 13.7-.3 13.6-.3.3-5.5c1-16.8-9.8-31.2-28.4-37.9-13.4-4.9-28.5-6.6-44.8-5.1z"/><path d="M420.5 608.6c-10.6 2.1-13.5 2.9-16.7 4.5-8.9 4.5-4.7 14.4 7.6 18.2 7.6 2.3 46.2 1 55.9-1.9 1.4-.5 1.7-1.8 1.7-9.4v-8.8l-2.7-.6c-9.4-1.9-17.4-2.6-29.8-2.5-7.7.1-14.9.3-16 .5z"/></svg>