<?xml version="1.0" standalone="no"?>
<!DOCTYPE svg PUBLIC "-//W3C//DTD SVG 20010904//EN"
 "http://www.w3.org/TR/2001/REC-SVG-20010904/DTD/svg10.dtd">
<svg version="1.0" xmlns="http://www.w3.org/2000/svg"
 width="700.000000pt" height="700.000000pt" viewBox="0 0 700.000000 700.000000"
 preserveAspectRatio="xMidYMid meet">
<metadata>
Created by potrace 1.14, written by Peter Selinger 2001-2017
</metadata>
<g transform="translate(0.000000,700.000000) scale(0.100000,-0.100000)"
fill="#000000" stroke="none">
<path d="M1255 6993 c-138 -12 -350 -75 -485 -143 -386 -196 -644 -533 -742
-971 l-23 -104 0 -2275 0 -2275 23 -104 c128 -568 527 -968 1095 -1093 l102
-23 2270 0 c2153 0 2275 1 2360 18 88 18 309 86 302 93 -2 2 -44 -5 -93 -15
-209 -46 -492 -52 -704 -15 -218 37 -403 126 -511 243 l-59 64 0 -125 0 -125
-57 -16 c-431 -118 -1003 -78 -1320 93 -251 135 -358 304 -357 560 1 136 18
212 75 321 112 216 328 350 681 421 99 20 142 23 353 23 257 0 366 -12 578
-62 l108 -25 -7 -111 -7 -111 32 37 c78 88 222 174 367 220 205 65 510 75 708
23 304 -79 494 -263 536 -518 10 -66 -6 -388 -21 -398 -9 -6 -33 -309 -25
-317 8 -9 92 62 173 145 182 189 305 422 365 695 l23 102 0 2275 0 2275 -23
102 c-97 438 -360 782 -747 975 -93 47 -197 84 -325 116 l-105 27 -2250 1
c-1237 0 -2268 -1 -2290 -3z m1080 -1088 c29 -28 29 -29 10 -120 -19 -90 -19
-252 0 -335 34 -145 105 -277 205 -380 36 -36 163 -138 284 -225 297 -215 353
-260 486 -394 211 -212 318 -414 350 -660 17 -134 2 -279 -46 -439 l-25 -83
31 -47 c56 -85 64 -185 22 -269 -41 -80 -152 -153 -233 -153 -16 0 -18 -20
-21 -263 l-3 -264 -28 -42 c-41 -61 -89 -81 -204 -81 -63 0 -93 -4 -93 -11 0
-25 -231 -1985 -237 -2007 -10 -40 -74 -99 -120 -111 -30 -8 -195 -11 -555 -9
l-513 3 -37 23 c-80 50 -69 -10 -199 1101 -65 553 -119 1007 -119 1008 0 0
-46 3 -103 5 -91 3 -108 6 -140 28 -20 13 -45 41 -56 61 -20 34 -21 53 -21
298 l0 261 -23 0 c-103 0 -221 89 -251 189 -20 68 -20 94 0 160 11 37 30 67
65 104 l50 52 -6 54 c-11 90 -6 263 9 338 41 191 113 333 251 488 l62 70 1 70
c4 198 99 394 278 570 l81 80 7 74 c22 226 125 434 290 589 150 139 405 291
494 292 22 0 41 -8 57 -25z"/>
<path d="M2095 5668 c-217 -135 -344 -287 -407 -488 -33 -108 -33 -294 0 -395
73 -218 239 -362 587 -508 72 -30 173 -71 227 -91 53 -20 102 -44 109 -52 23
-28 16 -84 -15 -110 -15 -13 -36 -24 -46 -24 -31 0 -306 108 -449 176 -327
156 -491 318 -576 569 -6 18 -12 14 -59 -36 -139 -149 -198 -381 -147 -581
108 -422 594 -692 1396 -778 55 -6 242 -13 417 -17 l316 -6 27 84 c39 121 46
315 16 442 -71 299 -256 507 -776 872 -286 200 -370 289 -465 487 -55 115 -80
220 -87 366 -3 67 -9 122 -12 122 -3 0 -28 -14 -56 -32z"/>
<path d="M1120 3998 c-120 -164 -179 -396 -154 -605 l7 -53 93 0 c83 0 96 -2
120 -24 36 -30 39 -86 6 -119 -20 -20 -35 -22 -157 -27 -131 -5 -135 -6 -162
-33 -38 -38 -38 -96 0 -134 l27 -28 936 -5 936 -5 24 -28 c32 -38 31 -72 -5
-108 l-29 -29 -816 0 -816 0 0 -240 0 -240 1050 0 1050 0 0 240 0 240 -71 0
c-65 0 -73 2 -100 29 -36 36 -37 70 -5 108 l24 28 192 5 192 5 24 28 c35 40
33 99 -4 136 l-27 28 -340 6 c-450 8 -689 35 -965 108 -482 128 -839 385 -965
696 -12 29 -25 56 -28 59 -3 3 -20 -14 -37 -38z"/>
<path d="M1530 2142 c0 -7 138 -145 221 -220 l35 -33 127 122 c70 66 127 125
127 130 0 5 -109 9 -255 9 -140 0 -255 -3 -255 -8z"/>
<path d="M2320 2143 c0 -5 59 -64 131 -132 l131 -124 124 124 c68 68 124 127
124 131 0 5 -115 8 -255 8 -140 0 -255 -3 -255 -7z"/>
<path d="M2040 1905 l-135 -135 138 -138 137 -137 137 137 138 138 -135 135
c-74 74 -137 135 -140 135 -3 0 -66 -61 -140 -135z"/>
<path d="M2780 1855 l-85 -85 70 -70 c38 -38 71 -68 73 -66 2 3 10 58 18 123
7 65 16 133 18 151 3 17 2 32 -2 32 -4 0 -45 -38 -92 -85z"/>
<path d="M1667 1532 c-163 -163 -163 -163 34 -343 l90 -82 135 134 c74 73 134
136 134 139 0 3 -62 64 -139 137 l-138 131 -116 -116z"/>
<path d="M2440 1515 l-135 -135 138 -137 137 -138 114 114 c100 100 114 118
119 155 l6 41 -117 118 c-64 64 -119 117 -122 117 -3 0 -66 -61 -140 -135z"/>
<path d="M2040 1125 l-135 -135 137 -137 138 -137 132 129 c73 72 135 134 137
139 3 8 -258 276 -269 276 -3 0 -66 -61 -140 -135z"/>
<path d="M1591 1040 c0 -14 4 -44 7 -68 l7 -43 30 31 29 30 -37 38 c-36 36
-37 36 -36 12z"/>
<path d="M2730 1025 l-34 -35 31 -32 31 -31 7 56 c4 31 5 61 3 67 -2 6 -19 -5
-38 -25z"/>
<path d="M1706 791 l-78 -79 7 -63 c11 -109 -14 -99 236 -99 120 0 219 3 219
8 0 4 -69 76 -153 160 l-152 152 -79 -79z"/>
<path d="M2414 709 l-159 -159 231 0 231 0 7 61 c11 114 13 110 -72 187 l-79
71 -159 -160z"/>
<path d="M1674 318 c4 -35 10 -80 13 -100 l6 -38 488 0 c456 0 488 1 493 18 3
9 8 54 12 100 l7 82 -513 0 -513 0 7 -62z"/>
<path d="M4013 1319 c-129 -10 -244 -33 -353 -71 -267 -94 -391 -258 -378
-500 5 -75 10 -95 40 -150 81 -147 284 -250 583 -293 165 -24 541 -17 638 11
14 4 17 17 17 76 l0 70 -53 -6 c-29 -4 -123 -7 -208 -7 -216 0 -327 30 -424
114 -66 57 -98 127 -103 225 -6 103 12 154 74 216 106 107 322 156 616 142
l136 -7 7 66 c4 36 5 69 1 72 -12 12 -167 33 -316 43 -85 5 -159 9 -165 9 -5
-1 -56 -5 -112 -10z"/>
<path d="M5526 1320 c-129 -12 -219 -36 -321 -85 -110 -53 -156 -91 -207 -169
-97 -151 -112 -365 -36 -508 60 -112 170 -183 363 -234 87 -23 126 -27 300
-31 172 -5 217 -2 322 16 66 11 152 31 190 43 67 23 68 23 71 62 3 29 0 37
-10 34 -7 -3 -53 -16 -103 -29 -77 -20 -114 -24 -250 -24 -137 0 -170 3 -230
22 -92 29 -185 90 -229 150 -34 46 -76 154 -91 236 -6 32 -5 37 12 37 16 0 21
12 31 77 22 142 86 239 190 290 50 25 68 28 152 28 109 0 162 -18 219 -76 55
-55 74 -110 79 -227 l4 -103 137 3 136 3 3 55 c10 168 -98 312 -284 379 -134
49 -285 66 -448 51z"/>
<path d="M4205 914 c-106 -21 -135 -29 -167 -45 -89 -45 -47 -144 76 -182 76
-23 462 -10 559 19 14 5 17 18 17 94 l0 88 -27 6 c-94 19 -174 26 -298 25 -77
-1 -149 -3 -160 -5z"/>
</g>
</svg>
